PathFileType	4	(X/Y/Z)	C:/Users/beibeiliu/ov580/test_trc\sequence.37_training_dense_right.trc
DataRate	CameraRate	NumFrames	NumMarkers	Units	OrigDataRate	OrigDataStartFrame	OrigNumFrames
120	120	12	19	mm	120	1	152
Frame#	Time	ThumbCMC			ThumbMCP			ThumbIP			ThumbTip			IndexMCP			IndexPIP			IndexTip			MiddleMCP			MiddlePIP			MiddleTip			RingMCP			RingPIP			RingTip			PinkyMCP			PinkyPIP			PinkyTip			BackHand1			BackHand2			BackHand3	
		X0	Y0	Z0	X1	Y1	Z1	X2	Y2	Z2	X3	Y3	Z3	X4	Y4	Z4	X5	Y5	Z5	X6	Y6	Z6	X7	Y7	Z7	X8	Y8	Z8	X9	Y9	Z9	X10	Y10	Z10	X11	Y11	Z11	X12	Y12	Z12	X13	Y13	Z13	X14	Y14	Z14	X15	Y15	Z15	X16	Y16	Z16	X17	Y17	Z17	X18	Y18	Z18	
0	0	125.258	2.31763	76.9986	129.593	21.4999	50.6879	122.066	32.1949	29.9245	113.997	42.3165	13.8751	86.9244	-7.72673	23.2659	78.0992	0.22307	-1.29512	75.6354	6.95154	-20.0883	62.3303	2.12495	30.2567	56.1152	17.6589	8.37576	50.0192	43.9002	-3.42837	50.7274	4.49949	45.3312	38.4239	14.8544	25.9753	28.8393	30.0959	10.3636	42.0795	10.3116	69.4687	25.6119	15.1008	63.0634	9.98047	16.9143	58.8625	74.3622	-10.4925	82.0032	88.8521	-17.1195	104.812	102.764	-19.2509	80.2945	
1	0.00833333	125.302	-1.15609	74.3693	129.816	9.82501	54.3253	126.43	13.5073	27.7867	129.379	19.1959	10.358	86.6165	-8.26944	24.6596	79.6659	-0.402774	-0.567778	71.2127	13.9033	-18.518	65.7222	-1.86701	31.0434	55.4068	16.4289	6.76594	50.4429	41.6314	-4.08344	50.4561	0.11959	44.6401	34.5866	9.20449	33.2275	27.1577	22.502	11.4027	43.0326	8.29201	71.1476	23.8427	11.7048	65.0869	7.64084	12.5342	56.1301	75.0645	-10.3818	83.9836	88.9718	-15.0907	106.787	101.909	-20.5953	79.8378	
2	0.0166667	127.56	-5.08345	81.1995	128.062	-2.94622	55.0077	129.912	-7.01968	30.9801	130.199	-8.22403	13.3644	82.8858	-10.4682	26.1804	78.295	-2.41422	4.13274	69.0668	14.549	-12.6087	60.5004	-3.75908	29.0483	52.9559	12.6683	8.63065	50.711	41.5023	-0.933071	46.6416	-2.03276	50.0887	34.8966	4.39911	33.3141	24.3659	18.4646	14.7671	40.1626	4.53567	73.2572	24.2221	8.61137	68.8018	8.34836	7.3134	61.5927	72.0363	-11.1251	85.9329	83.5146	-14.897	108.458	98.9883	-21.6099	84.837	
3	0.025	123.853	-9.29848	81.0514	128.644	-11.9565	59.9118	125.576	-21.4515	35.225	129.518	-26.2771	17.7509	81.4479	-13.5644	28.3306	72.3567	-0.667852	3.05762	64.2206	17.3378	-9.80929	54.845	-5.13633	34.6983	48.0976	15.6548	12.6715	52.9042	43.4744	8.71589	43.4996	-5.20706	49.6003	28.8428	4.02662	31.8886	23.5967	17.8433	14.4366	39.2059	2.31671	75.5959	24.1137	4.22819	70.3141	1.84118	2.44119	62.671	71.3966	-14.2968	86.7642	84.1535	-12.9024	111.602	97.5571	-22.6615	81.8978	
4	0.0333333	121.729	-10.8595	80.8614	123.833	-13.6836	60.4953	121.925	-23.9491	37.7792	122.697	-30.0153	19.1258	75.6007	-12.9812	26.7537	70.4485	-2.62817	6.159	61.4697	18.195	-6.70008	58.5121	-6.38402	35.5402	52.3957	21.1826	16.1087	63.2392	46.5606	20.2804	45.0435	-4.67959	53.4135	29.6289	4.75502	30.2704	22.3857	20.7586	13.9125	39.0069	1.16606	78.9609	18.0899	-1.58929	69.6392	0.203841	-2.29645	62.1746	70.8808	-14.0585	90.6456	79.9094	-15.0262	114.232	93.4724	-21.6952	88.7026	
5	0.0416667	119.638	-6.03606	79.1769	119.103	-6.41407	58.6339	117.577	-12.0298	38.308	116.216	-17.5477	18.4112	77.4853	-9.05032	27.183	64.1868	4.98666	9.03797	62.5987	25.4786	-8.58107	55.9656	-0.228007	37.835	52.5409	28.4579	24.5715	71.5671	48.6317	37.5405	42.4432	-3.22913	50.5327	27.5309	7.57623	35.397	25.4891	23.5386	18.3375	34.5222	-0.822157	79.5157	21.5761	-3.60684	70.7564	-1.85299	-7.09351	64.0127	65.4637	-12.4105	91.0084	80.6666	-14.4069	110.565	91.555	-20.6287	85.2291	
6	0.05	119.446	2.70769	78.048	121.472	7.33271	54.0052	115.979	5.33483	29.4359	111.513	7.20393	11.2828	77.0678	-2.86795	27.4078	67.642	12.3419	7.43893	56.3177	32.4716	-0.954712	59.3222	5.9858	36.4047	57.9318	36.4859	31.3354	78.0044	48.6284	53.1765	40.7959	-0.459797	53.1445	28.218	12.7646	37.2599	24.1816	31.3246	23.8516	39.7776	-1.63272	78.7251	19.3217	-3.70993	72.6229	0.460802	-9.04202	63.6884	72.9948	-13.9984	90.5713	87.5019	-14.5586	109.913	97.3727	-17.7048	82.6246	
7	0.0583333	125.174	12.1235	78.2842	119.673	22.8171	52.696	111.418	26.6252	30.6431	102.12	31.2886	10.9577	81.1378	2.78827	25.0977	65.4535	20.5058	10.1534	56.1378	41.2585	-0.164254	60.2243	12.7359	38.1455	60.8848	42.3882	38.4062	81.932	46.1525	65.4298	43.7318	2.18255	52.8494	29.9833	16.7391	38.3475	28.2494	34.568	25.3272	44.5301	-2.88838	79.3411	28.2145	-5.55768	71.2144	7.97926	-12.9565	65.3902	76.5312	-14.68	85.0559	93.9708	-14.7274	109.874	106.599	-14.578	81.3968	
8	0.0666667	123.687	14.325	75.4807	120.821	30.7108	54.1713	110.285	36.291	35.7552	99.8699	44.5384	17.1726	82.0825	5.51764	26.6829	68.9295	20.4012	11.2279	57.5577	37.8915	4.64139	63.2811	11.3631	40.2587	62.5914	43.3578	43.049	80.786	48.1309	62.597	52.9716	-0.533212	54.5924	37.2146	13.5729	40.2646	27.8811	36.0085	28.2423	47.6875	-6.11421	80.3556	31.8835	-8.94652	69.6982	15.2581	-14.5272	67.9719	79.9981	-15.4629	88.9627	95.9937	-15.0865	108.893	109.738	-12.4451	83.4436	
9	0.075	131.613	15.5883	78.479	122.289	32.6312	55.2011	112.418	38.7653	36.8638	98.8225	46.1461	18.3748	83.4786	2.07935	29.241	74.1275	15.4505	13.6265	57.4144	35.8194	4.61286	66.5889	9.42947	38.1075	62.2258	39.6111	42.9589	81.0627	48.2563	62.4025	55.6599	-4.88322	57.2486	40.1518	7.49717	41.7781	29.7318	27.2741	30.1753	50.5801	-10.3854	83.9784	36.2967	-14.4469	73.4288	22.1632	-23.0561	65.8625	89.625	-13.9911	89.3184	100.378	-15.9367	108.975	113.604	-15.0216	85.8378	
10	0.0833333	130.005	12.5725	78.7596	125.174	30.2544	53.3398	115.213	38.416	34.9309	99.5428	43.6864	19.2757	89.8724	-1.96703	31.5418	73.0566	12.3362	12.1568	56.8191	24.6412	5.61962	66.8697	4.57756	41.6935	57.0602	31.6035	41.229	75.4555	47.8648	61.7598	54.3673	-9.20114	57.6292	39.6286	0.810108	43.8752	28.4502	18.5908	31.7832	52.3148	-13.3541	85.6799	39.3326	-18.2536	75.0034	23.0179	-29.9716	67.8913	93.2481	-16.703	92.069	107.109	-18.8145	112.449	116.701	-13.8697	86.6963	
11	0.0916667	134.292	14.0836	82.6202	124.068	26.2846	59.1441	114.411	33.5541	33.7814	103.276	40.2976	16.3269	91.1508	-3.1504	30.1487	73.3796	6.15751	14.1686	57.8555	20.7003	2.24899	71.931	-0.902881	42.3748	56.489	27.5931	38.0976	70.2401	50.4302	53.8504	57.2656	-13.1465	59.1469	40.3352	-4.59019	46.3797	27.7209	11.9708	30.7467	54.3267	-17.3936	81.2717	38.6656	-23.1834	76.652	25.4752	-32.5268	72.7298	90.4477	-19.7921	90.5798	108.115	-18.9128	112.089	119.148	-14.4575	82.2853	
